<?xml version="1.0" encoding="UTF-8"?>
<svg width="64px" height="28px" viewBox="0 0 64 28" version="1.1" xmlns="http://www.w3.org/2000/svg" xmlns:xlink="http://www.w3.org/1999/xlink">
    <title>Artboard</title>
    <g id="Artboard" stroke="none" stroke-width="1" fill="none" fill-rule="evenodd">
        <g id="Shove.dev-Copy" transform="translate(0.000000, 6.000000)" fill="#CA2DDD" fill-rule="nonzero">
            <path d="M5.67029207,16 C4.40588211,16 3.31744674,15.8471545 2.40498595,15.5414634 C1.49252515,15.2357724 0.690863172,14.8617886 0,14.4195122 L1.29048026,11.5121951 C2.00741374,11.9674797 2.74064117,12.3414634 3.49016253,12.6341463 C4.2396839,12.9268293 5.12281559,13.0731707 6.13955762,13.0731707 C6.90863172,13.0731707 7.4821785,12.9300813 7.86019797,12.6439024 C8.23821744,12.3577236 8.45981506,11.9739837 8.52499083,11.4926829 C8.61623691,10.8943089 8.45981506,10.4845528 8.05572528,10.2634146 C7.6516355,10.0422764 6.9412196,9.81463415 5.92447758,9.5804878 C4.19080207,9.17723577 3.01112062,8.62439024 2.38543322,7.92195122 C1.75974581,7.2195122 1.54466577,6.20487805 1.74019308,4.87804878 C1.92268524,3.51219512 2.55163143,2.35772358 3.62703165,1.41463415 C4.70243187,0.471544715 6.21125097,0 8.15348894,0 C9.09202004,0 10.017516,0.165853659 10.9299768,0.497560976 C11.8424376,0.829268293 12.5528535,1.15772358 13.0612245,1.48292683 L11.9858243,4.25365854 C11.2558556,3.86341463 10.5584749,3.55121951 9.89368202,3.31707317 C9.22888916,3.08292683 8.51195568,2.96585366 7.74288158,2.96585366 C7.10415903,2.96585366 6.61859954,3.08943089 6.2862031,3.33658537 C5.95380667,3.58373984 5.75502057,3.94796748 5.6898448,4.42926829 C5.62466903,4.91056911 5.75502057,5.29430894 6.08089943,5.5804878 C6.40677828,5.86666667 7.14978207,6.13333333 8.30991079,6.3804878 C10.0435863,6.75772358 11.220009,7.31056911 11.8391788,8.03902439 C12.4583486,8.76747967 12.6701699,9.84065041 12.4746426,11.2585366 C12.2530449,12.7674797 11.5458878,13.9349593 10.3531712,14.7609756 C9.1604546,15.5869919 7.59949489,16 5.67029207,16 Z" id="Path"></path>
            <path d="M13.0612245,15.7823129 L15.2419844,0.108843537 L19.1361986,0.108843537 L18.2989425,6.18231293 L18.8830747,6.18231293 C19.3114382,5.43782313 19.8663637,4.85986395 20.5478512,4.44843537 C21.2293387,4.0370068 21.9724846,3.83129252 22.7772888,3.83129252 C23.7638231,3.83129252 24.506969,4.15455782 25.0067264,4.80108844 C25.5064839,5.44761905 25.6784784,6.30639456 25.5227098,7.37741497 L24.3544456,15.7823129 L20.4602314,15.7823129 L21.4921982,8.45496599 C21.5571017,7.90639456 21.5116692,7.48843537 21.3559007,7.20108844 C21.2001321,6.9137415 20.9405178,6.77006803 20.5770578,6.77006803 C20.1746557,6.77006803 19.7495373,6.92353741 19.3017027,7.23047619 C18.8538681,7.53741497 18.415769,7.94557823 17.9874054,8.45496599 L16.9554387,15.7823129 L13.0612245,15.7823129 Z" id="Path"></path>
            <path d="M31.4428818,16 C29.6748771,16 28.3423735,15.6102699 27.4453711,14.8308097 C26.5483688,14.0513496 26.1973678,12.9666008 26.3923683,11.5765635 L26.8408695,8.41974984 C27.0358701,7.01672153 27.6923718,5.91573404 28.8103748,5.11678736 C29.9283778,4.31784068 31.3778816,3.91836735 33.1588864,3.91836735 C34.9268911,3.91836735 36.2496446,4.32758394 37.1271469,5.14601712 C38.0046493,5.9644503 38.3459002,7.08817204 38.1508997,8.51718236 L37.7023985,11.6739961 C37.507398,13.0250603 36.8573962,14.0838271 35.7523933,14.8502962 C34.6473903,15.6167654 33.2108865,16 31.4428818,16 Z M31.8133828,13.2718894 C32.4373844,13.2718894 32.9086357,13.1224929 33.2271366,12.8236998 C33.5456374,12.5249067 33.7503879,12.0442396 33.8413882,11.3816985 L34.2313892,8.59512837 C34.3223895,7.90660522 34.2541393,7.40969936 34.0266387,7.1044108 C33.7991381,6.79912223 33.3733869,6.64647795 32.7493853,6.64647795 C32.1253836,6.64647795 31.6541324,6.79912223 31.3356315,7.1044108 C31.0171307,7.40969936 30.8123801,7.89361422 30.7213799,8.55615537 L30.3508789,11.284266 C30.2468786,11.9857801 30.3086288,12.4924292 30.5361294,12.8042133 C30.76363,13.1159974 31.1893811,13.2718894 31.8133828,13.2718894 Z" id="Shape"></path>
            <polygon id="Path" points="46.8192881 15.7823129 41.6737143 15.7823129 39.9455782 4.02721088 43.596023 4.02721088 44.7610586 12.7455782 48.3144171 4.02721088 51.8095238 4.02721088"></polygon>
            <path d="M63.3579842,13.0380513 C62.6809521,14.1682686 61.8965062,14.944481 61.0046466,15.3666886 C60.112787,15.7888962 58.8075472,16 57.0889272,16 C55.474466,16 54.1659712,15.6297564 53.1634429,14.8892693 C52.1609145,14.1487821 51.7638091,13.0250603 51.9721267,11.518104 L52.4017817,8.41974984 C52.5970794,7.01672153 53.2545818,5.91573404 54.3742888,5.11678736 C55.4939957,4.31784068 56.9457088,3.91836735 58.7294281,3.91836735 C60.5001275,3.91836735 61.8248971,4.31784068 62.7037368,5.11678736 C63.5825766,5.91573404 63.9243476,7.02971253 63.7290499,8.45872284 L63.4165735,10.7386438 L55.9952599,10.7386438 L55.8390217,11.7909151 C55.7609026,12.3365372 55.8455316,12.768488 56.0929088,13.0867676 C56.3402859,13.4050472 56.8220203,13.564187 57.538112,13.564187 C58.0979654,13.564187 58.5959746,13.4764977 59.0321396,13.3011192 C59.4683045,13.1257406 59.8816847,12.7587448 60.2722801,12.2001317 L63.3579842,13.0380513 Z M56.3663256,8.03001975 L56.2686767,8.78999342 L59.7840358,8.78999342 L59.8621549,8.20539829 C59.9663137,7.47790213 59.9207442,6.97125302 59.7254465,6.68545095 C59.5301488,6.39964889 59.080964,6.25674786 58.3778922,6.25674786 C57.6748204,6.25674786 57.186576,6.38990564 56.9131592,6.6562212 C56.6397424,6.92253676 56.4574645,7.38046961 56.3663256,8.03001975 Z" id="Shape"></path>
        </g>
    </g>
</svg>